<svg xmlns="http://www.w3.org/2000/svg" xmlns:xlink="http://www.w3.org/1999/xlink" width="500" zoomAndPan="magnify" viewBox="0 0 375 374.999991" height="500" preserveAspectRatio="xMidYMid meet" version="1.0"><defs><filter x="0%" y="0%" width="100%" height="100%" id="9557ed0689"><feColorMatrix values="0 0 0 0 1 0 0 0 0 1 0 0 0 0 1 0 0 0 1 0" color-interpolation-filters="sRGB"/></filter><mask id="2a00be5ade"><g filter="url(#9557ed0689)"><rect x="-37.5" width="450" fill="#000000" y="-37.499999" height="449.999989" fill-opacity="0.32"/></g></mask><clipPath id="7fcbc5da2f"><path d="M 0.078125 1 L 279 1 L 279 339 L 0.078125 339 Z M 0.078125 1 " clip-rule="nonzero"/></clipPath><clipPath id="24350c50e3"><rect x="0" width="280" y="0" height="340"/></clipPath><mask id="04819fc59f"><g filter="url(#9557ed0689)"><rect x="-37.5" width="450" fill="#000000" y="-37.499999" height="449.999989" fill-opacity="0.32"/></g></mask><clipPath id="6cb185fe10"><path d="M 0.398438 2 L 228 2 L 228 295 L 0.398438 295 Z M 0.398438 2 " clip-rule="nonzero"/></clipPath><clipPath id="ca6f266c91"><rect x="0" width="230" y="0" height="296"/></clipPath><mask id="1200769005"><g filter="url(#9557ed0689)"><rect x="-37.5" width="450" fill="#000000" y="-37.499999" height="449.999989" fill-opacity="0.32"/></g></mask><clipPath id="d6a61f87e5"><rect x="0" width="155" y="0" height="195"/></clipPath><mask id="9b421d100c"><g filter="url(#9557ed0689)"><rect x="-37.5" width="450" fill="#000000" y="-37.499999" height="449.999989" fill-opacity="0.32"/></g></mask><clipPath id="46ac673418"><rect x="0" width="228" y="0" height="267"/></clipPath><clipPath id="7c967d62c2"><path d="M 87.527344 116.519531 L 287.777344 116.519531 L 287.777344 258.269531 L 87.527344 258.269531 Z M 87.527344 116.519531 " clip-rule="nonzero"/></clipPath></defs><rect x="-37.5" width="450" fill="transparent" y="-37.499999" height="449.999989" fill-opacity="1"/><rect x="-37.5" width="450" fill="transparent" y="-37.499999" height="449.999989" fill-opacity="1"/><path fill="#38b6ff" d="M 375 187.5 C 375 291.054688 291.054688 375 187.5 375 C 163.707031 375 140.960938 370.574219 120.039062 362.476562 C 97.03125 353.625 76.238281 340.351562 58.648438 323.699219 C 49.539062 315.09375 41.289062 305.550781 34.050781 295.257812 C 29.15625 288.335938 24.75 281.0625 20.851562 273.488281 C 7.519531 247.742188 0 218.492188 0 187.5 C 0 83.945312 83.945312 0 187.5 0 C 199.761719 0 211.742188 1.179688 223.332031 3.429688 C 231.769531 5.042969 239.980469 7.238281 247.96875 9.957031 C 259.949219 14.042969 271.386719 19.292969 282.148438 25.632812 C 303.28125 37.988281 321.769531 54.375 336.542969 73.742188 C 360.675781 105.28125 375 144.710938 375 187.5 Z M 375 187.5 " fill-opacity="1" fill-rule="nonzero"/><g mask="url(#2a00be5ade)"><g transform="matrix(1, 0, 0, 1, 58, 24)"><g clip-path="url(#24350c50e3)"><g clip-path="url(#7fcbc5da2f)"><path fill="#ffffff" d="M 278.542969 49.742188 L 62.039062 338.476562 C 39.03125 329.625 18.238281 316.351562 0.648438 299.699219 L 224.148438 1.632812 C 245.28125 13.988281 263.769531 30.375 278.542969 49.742188 Z M 278.542969 49.742188 " fill-opacity="1" fill-rule="nonzero"/></g></g></g></g><g mask="url(#04819fc59f)"><g transform="matrix(1, 0, 0, 1, 20, 1)"><g clip-path="url(#ca6f266c91)"><g clip-path="url(#6cb185fe10)"><path fill="#ffffff" d="M 227.96875 8.957031 L 14.050781 294.257812 C 9.15625 287.335938 4.75 280.0625 0.851562 272.488281 L 203.332031 2.429688 C 211.769531 4.042969 219.980469 6.238281 227.96875 8.957031 Z M 227.96875 8.957031 " fill-opacity="1" fill-rule="nonzero"/></g></g></g></g><path fill="#5e17eb" d="M 341.925781 187.5 C 341.925781 190.003906 341.863281 192.507812 341.738281 195.011719 C 341.613281 197.515625 341.429688 200.011719 341.179688 202.503906 C 340.933594 205 340.625 207.484375 340.253906 209.964844 C 339.882812 212.441406 339.449219 214.910156 338.957031 217.367188 C 338.464844 219.824219 337.910156 222.269531 337.296875 224.699219 C 336.683594 227.128906 336.007812 229.542969 335.277344 231.941406 C 334.542969 234.339844 333.75 236.714844 332.898438 239.074219 C 332.046875 241.433594 331.136719 243.773438 330.171875 246.085938 C 329.203125 248.402344 328.179688 250.691406 327.097656 252.957031 C 326.019531 255.222656 324.882812 257.457031 323.691406 259.667969 C 322.5 261.878906 321.253906 264.058594 319.953125 266.207031 C 318.65625 268.355469 317.304688 270.472656 315.898438 272.554688 C 314.496094 274.636719 313.039062 276.683594 311.535156 278.699219 C 310.03125 280.710938 308.476562 282.683594 306.871094 284.621094 C 305.269531 286.558594 303.617188 288.453125 301.921875 290.3125 C 300.222656 292.167969 298.480469 293.980469 296.695312 295.753906 C 294.90625 297.523438 293.078125 299.253906 291.207031 300.933594 C 289.332031 302.617188 287.417969 304.253906 285.464844 305.84375 C 283.511719 307.433594 281.519531 308.972656 279.492188 310.464844 C 277.460938 311.957031 275.394531 313.402344 273.292969 314.792969 C 271.191406 316.183594 269.058594 317.523438 266.890625 318.8125 C 264.722656 320.101562 262.523438 321.335938 260.296875 322.515625 C 258.066406 323.699219 255.808594 324.824219 253.523438 325.894531 C 251.242188 326.964844 248.929688 327.980469 246.597656 328.941406 C 244.261719 329.898438 241.902344 330.800781 239.523438 331.644531 C 237.144531 332.488281 234.746094 333.273438 232.328125 334 C 229.910156 334.730469 227.472656 335.398438 225.023438 336.003906 C 222.570312 336.613281 220.105469 337.164062 217.625 337.652344 C 215.148438 338.140625 212.660156 338.570312 210.160156 338.9375 C 207.660156 339.304688 205.152344 339.609375 202.636719 339.855469 C 200.121094 340.101562 197.601562 340.285156 195.078125 340.410156 C 192.554688 340.53125 190.027344 340.59375 187.5 340.59375 C 184.972656 340.59375 182.445312 340.53125 179.921875 340.410156 C 177.398438 340.285156 174.878906 340.101562 172.363281 339.855469 C 169.847656 339.609375 167.339844 339.304688 164.839844 338.9375 C 162.339844 338.570312 159.851562 338.140625 157.375 337.652344 C 154.894531 337.164062 152.429688 336.613281 149.976562 336.003906 C 147.527344 335.398438 145.089844 334.730469 142.671875 334 C 140.253906 333.273438 137.855469 332.488281 135.476562 331.644531 C 133.097656 330.800781 130.738281 329.898438 128.402344 328.941406 C 126.070312 327.980469 123.757812 326.964844 121.476562 325.894531 C 119.191406 324.824219 116.933594 323.699219 114.703125 322.515625 C 112.476562 321.335938 110.277344 320.101562 108.109375 318.8125 C 105.941406 317.523438 103.808594 316.183594 101.707031 314.792969 C 99.605469 313.402344 97.539062 311.957031 95.507812 310.464844 C 93.480469 308.972656 91.488281 307.433594 89.535156 305.84375 C 87.582031 304.253906 85.667969 302.617188 83.792969 300.933594 C 81.921875 299.253906 80.09375 297.523438 78.304688 295.753906 C 76.519531 293.980469 74.777344 292.167969 73.078125 290.3125 C 71.382812 288.453125 69.730469 286.558594 68.128906 284.621094 C 66.523438 282.683594 64.96875 280.710938 63.464844 278.699219 C 61.960938 276.683594 60.503906 274.636719 59.101562 272.554688 C 57.695312 270.472656 56.34375 268.355469 55.046875 266.207031 C 53.746094 264.058594 52.5 261.878906 51.308594 259.667969 C 50.117188 257.457031 48.980469 255.222656 47.902344 252.957031 C 46.820312 250.691406 45.796875 248.402344 44.828125 246.085938 C 43.863281 243.773438 42.953125 241.433594 42.101562 239.074219 C 41.25 236.714844 40.457031 234.339844 39.722656 231.941406 C 38.992188 229.542969 38.316406 227.128906 37.703125 224.699219 C 37.089844 222.269531 36.535156 219.824219 36.042969 217.367188 C 35.550781 214.910156 35.117188 212.441406 34.746094 209.964844 C 34.375 207.484375 34.066406 205 33.820312 202.503906 C 33.570312 200.011719 33.386719 197.515625 33.261719 195.011719 C 33.136719 192.507812 33.074219 190.003906 33.074219 187.5 C 33.074219 184.996094 33.136719 182.492188 33.261719 179.988281 C 33.386719 177.484375 33.570312 174.988281 33.820312 172.496094 C 34.066406 170 34.375 167.515625 34.746094 165.035156 C 35.117188 162.558594 35.550781 160.089844 36.042969 157.632812 C 36.535156 155.175781 37.089844 152.730469 37.703125 150.300781 C 38.316406 147.871094 38.992188 145.457031 39.722656 143.058594 C 40.457031 140.660156 41.25 138.285156 42.101562 135.925781 C 42.953125 133.566406 43.863281 131.226562 44.828125 128.914062 C 45.796875 126.597656 46.820312 124.308594 47.902344 122.042969 C 48.980469 119.777344 50.117188 117.542969 51.308594 115.332031 C 52.5 113.121094 53.746094 110.941406 55.046875 108.792969 C 56.34375 106.644531 57.695312 104.527344 59.101562 102.445312 C 60.503906 100.363281 61.960938 98.316406 63.464844 96.300781 C 64.96875 94.289062 66.523438 92.316406 68.128906 90.378906 C 69.730469 88.441406 71.382812 86.546875 73.078125 84.6875 C 74.777344 82.832031 76.519531 81.019531 78.304688 79.246094 C 80.09375 77.476562 81.921875 75.746094 83.792969 74.066406 C 85.667969 72.382812 87.582031 70.746094 89.535156 69.15625 C 91.488281 67.566406 93.480469 66.027344 95.507812 64.535156 C 97.539062 63.042969 99.605469 61.597656 101.707031 60.207031 C 103.808594 58.816406 105.941406 57.476562 108.109375 56.1875 C 110.277344 54.898438 112.476562 53.664062 114.703125 52.484375 C 116.933594 51.300781 119.191406 50.175781 121.476562 49.105469 C 123.757812 48.035156 126.070312 47.019531 128.402344 46.058594 C 130.738281 45.101562 133.097656 44.199219 135.476562 43.355469 C 137.855469 42.511719 140.253906 41.726562 142.671875 41 C 145.089844 40.269531 147.527344 39.601562 149.976562 38.996094 C 152.429688 38.386719 154.894531 37.835938 157.375 37.347656 C 159.851562 36.859375 162.339844 36.429688 164.839844 36.0625 C 167.339844 35.695312 169.847656 35.390625 172.363281 35.144531 C 174.878906 34.898438 177.398438 34.714844 179.921875 34.589844 C 182.445312 34.46875 184.972656 34.40625 187.5 34.40625 C 190.027344 34.40625 192.554688 34.46875 195.078125 34.589844 C 197.601562 34.714844 200.121094 34.898438 202.636719 35.144531 C 205.152344 35.390625 207.660156 35.695312 210.160156 36.0625 C 212.660156 36.429688 215.148438 36.859375 217.625 37.347656 C 220.105469 37.835938 222.570312 38.386719 225.023438 38.996094 C 227.472656 39.601562 229.910156 40.269531 232.328125 41 C 234.746094 41.726562 237.144531 42.511719 239.523438 43.355469 C 241.902344 44.199219 244.261719 45.101562 246.597656 46.058594 C 248.929688 47.019531 251.242188 48.035156 253.523438 49.105469 C 255.808594 50.175781 258.066406 51.300781 260.296875 52.484375 C 262.523438 53.664062 264.722656 54.898438 266.890625 56.1875 C 269.058594 57.476562 271.191406 58.816406 273.292969 60.207031 C 275.394531 61.597656 277.460938 63.042969 279.492188 64.535156 C 281.519531 66.027344 283.511719 67.566406 285.464844 69.15625 C 287.417969 70.746094 289.332031 72.382812 291.207031 74.066406 C 293.078125 75.746094 294.90625 77.476562 296.695312 79.246094 C 298.480469 81.019531 300.222656 82.832031 301.921875 84.6875 C 303.617188 86.546875 305.269531 88.441406 306.871094 90.378906 C 308.476562 92.316406 310.03125 94.289062 311.535156 96.300781 C 313.039062 98.316406 314.496094 100.363281 315.898438 102.445312 C 317.304688 104.527344 318.65625 106.644531 319.953125 108.792969 C 321.253906 110.941406 322.5 113.121094 323.691406 115.332031 C 324.882812 117.542969 326.019531 119.777344 327.097656 122.042969 C 328.179688 124.308594 329.203125 126.597656 330.171875 128.914062 C 331.136719 131.226562 332.046875 133.566406 332.898438 135.925781 C 333.75 138.285156 334.542969 140.660156 335.277344 143.058594 C 336.007812 145.457031 336.683594 147.871094 337.296875 150.300781 C 337.910156 152.730469 338.464844 155.175781 338.957031 157.632812 C 339.449219 160.089844 339.882812 162.558594 340.253906 165.035156 C 340.625 167.515625 340.933594 170 341.179688 172.496094 C 341.429688 174.988281 341.613281 177.484375 341.738281 179.988281 C 341.863281 182.492188 341.925781 184.996094 341.925781 187.5 Z M 341.925781 187.5 " fill-opacity="1" fill-rule="nonzero"/><path fill="#5ce1e6" d="M 330.976562 187.5 C 330.976562 266.0625 266.738281 329.757812 187.5 329.757812 C 166.800781 329.757812 147.113281 325.40625 129.335938 317.570312 C 106.726562 307.632812 87.207031 292.050781 72.5625 272.664062 C 64.480469 261.957031 57.882812 250.085938 53.082031 237.355469 C 49.554688 228.019531 46.988281 218.210938 45.523438 208.070312 C 44.53125 201.355469 44.023438 194.492188 44.023438 187.5 C 44.023438 116.023438 97.199219 56.851562 166.480469 46.761719 C 173.34375 45.769531 180.355469 45.242188 187.5 45.242188 C 190.667969 45.242188 193.800781 45.335938 196.914062 45.5625 C 210.789062 46.445312 224.136719 49.273438 236.664062 53.8125 C 259.988281 62.25 280.480469 76.519531 296.363281 94.835938 C 317.945312 119.71875 330.976562 152.101562 330.976562 187.5 Z M 330.976562 187.5 " fill-opacity="1" fill-rule="nonzero"/><g mask="url(#1200769005)"><g transform="matrix(1, 0, 0, 1, 44, 44)"><g clip-path="url(#d6a61f87e5)"><path fill="#ffffff" d="M 152.914062 1.5625 L 9.082031 193.355469 C 5.554688 184.019531 2.988281 174.210938 1.523438 164.070312 L 122.480469 2.761719 C 129.34375 1.769531 136.355469 1.242188 143.5 1.242188 C 146.667969 1.242188 149.800781 1.335938 152.914062 1.5625 Z M 152.914062 1.5625 " fill-opacity="1" fill-rule="nonzero"/></g></g></g><g mask="url(#9b421d100c)"><g transform="matrix(1, 0, 0, 1, 71, 52)"><g clip-path="url(#46ac673418)"><path fill="#ffffff" d="M 225.363281 42.835938 L 58.335938 265.570312 C 35.726562 255.632812 16.207031 240.050781 1.5625 220.664062 L 165.664062 1.8125 C 188.988281 10.25 209.480469 24.519531 225.363281 42.835938 Z M 225.363281 42.835938 " fill-opacity="1" fill-rule="nonzero"/></g></g></g><g clip-path="url(#7c967d62c2)"><path fill="#5e17eb" d="M 216.449219 245.453125 L 284.792969 245.453125 L 284.792969 258.414062 L 188.382812 258.414062 L 284.632812 145.613281 L 284.632812 165.644531 Z M 193.738281 226.707031 L 287.472656 116.582031 L 196.898438 116.582031 L 196.898438 129.546875 L 259.40625 129.546875 L 206.273438 191.945312 C 206.378906 190.390625 206.433594 188.835938 206.433594 187.230469 C 206.433594 150.542969 176.597656 120.707031 139.910156 120.707031 L 117.304688 120.707031 L 117.304688 120.761719 L 116.824219 120.761719 L 116.824219 205.335938 L 129.894531 212.886719 L 129.894531 133.722656 L 139.960938 133.722656 C 169.476562 133.722656 193.523438 157.71875 193.523438 187.285156 C 193.523438 216.796875 169.527344 240.847656 139.960938 240.847656 L 100.488281 240.847656 L 100.488281 162.164062 L 87.527344 154.664062 L 87.527344 253.753906 L 139.960938 253.753906 C 161.921875 253.753906 181.417969 243.042969 193.523438 226.597656 C 193.632812 226.652344 193.683594 226.652344 193.738281 226.707031 Z M 193.738281 226.707031 " fill-opacity="1" fill-rule="nonzero"/></g></svg>